<?xml version="1.0" encoding="utf-8"?>
<svg version="1.1" xmlns:xlink="http://www.w3.org/1999/xlink" width="248px" height="60px" xmlns="http://www.w3.org/2000/svg">
  <defs>
    <mask fill="white" id="clip2679">
      <path d="M 0 52.5  L 0 7.5  C 0 3.30000000000007  3.89714285714294 0  8.85714285714286 0  L 115.733333333335 0  L 239.142857142857 0  C 244.102857142857 0  248 3.30000000000007  248 7.5  L 248 52.5  C 248 56.6999999999999  244.102857142857 60  239.142857142857 60  L 138.443956043956 60  L 8.85714285714286 60  C 3.89714285714294 60  0 56.6999999999999  0 52.5  Z " fill-rule="evenodd" />
    </mask>
  </defs>
  <g transform="matrix(1 0 0 1 -486 -835 )">
    <path d="M 0 52.5  L 0 7.5  C 0 3.30000000000007  3.89714285714294 0  8.85714285714286 0  L 115.733333333335 0  L 239.142857142857 0  C 244.102857142857 0  248 3.30000000000007  248 7.5  L 248 52.5  C 248 56.6999999999999  244.102857142857 60  239.142857142857 60  L 138.443956043956 60  L 8.85714285714286 60  C 3.89714285714294 60  0 56.6999999999999  0 52.5  Z " fill-rule="nonzero" fill="#62b5f2" stroke="none" transform="matrix(1 0 0 1 486 835 )" />
    <path d="M 0 52.5  L 0 7.5  C 0 3.30000000000007  3.89714285714294 0  8.85714285714286 0  L 115.733333333335 0  L 239.142857142857 0  C 244.102857142857 0  248 3.30000000000007  248 7.5  L 248 52.5  C 248 56.6999999999999  244.102857142857 60  239.142857142857 60  L 138.443956043956 60  L 8.85714285714286 60  C 3.89714285714294 60  0 56.6999999999999  0 52.5  Z " stroke-width="2" stroke="#797979" fill="none" transform="matrix(1 0 0 1 486 835 )" mask="url(#clip2679)" />
  </g>
</svg>