<?xml version="1.0" encoding="utf-8"?>
<svg version="1.1" xmlns:xlink="http://www.w3.org/1999/xlink" width="170px" height="45px" xmlns="http://www.w3.org/2000/svg">
  <defs>
    <mask fill="white" id="clip2672">
      <path d="M 0 39.375  L 0 5.625  C 0 2.475  3.11666666666673 0  7.08333333333333 0  L 81.1041666666667 0  L 162.916666666667 0  C 166.883333333333 0  170 2.475  170 5.625  L 170 39.375  C 170 42.525  166.883333333333 45  162.916666666667 45  L 94.7685185185168 45  L 7.08333333333333 45  C 3.11666666666673 45  0 42.525  0 39.375  Z " fill-rule="evenodd" />
    </mask>
  </defs>
  <g transform="matrix(1 0 0 1 -1189 -53 )">
    <path d="M 0 39.375  L 0 5.625  C 0 2.475  3.11666666666673 0  7.08333333333333 0  L 81.1041666666667 0  L 162.916666666667 0  C 166.883333333333 0  170 2.475  170 5.625  L 170 39.375  C 170 42.525  166.883333333333 45  162.916666666667 45  L 94.7685185185168 45  L 7.08333333333333 45  C 3.11666666666673 45  0 42.525  0 39.375  Z " fill-rule="nonzero" fill="#3999dc" stroke="none" transform="matrix(1 0 0 1 1189 53 )" />
    <path d="M 0 39.375  L 0 5.625  C 0 2.475  3.11666666666673 0  7.08333333333333 0  L 81.1041666666667 0  L 162.916666666667 0  C 166.883333333333 0  170 2.475  170 5.625  L 170 39.375  C 170 42.525  166.883333333333 45  162.916666666667 45  L 94.7685185185168 45  L 7.08333333333333 45  C 3.11666666666673 45  0 42.525  0 39.375  Z " stroke-width="2" stroke="#797979" fill="none" transform="matrix(1 0 0 1 1189 53 )" mask="url(#clip2672)" />
  </g>
</svg>