<?xml version="1.0" encoding="utf-8"?>
<svg version="1.1" xmlns:xlink="http://www.w3.org/1999/xlink" width="165px" height="45px" xmlns="http://www.w3.org/2000/svg">
  <defs>
    <mask fill="white" id="clip2667">
      <path d="M 0 39.375  L 0 5.625  C 0 2.475  3.02500000000006 0  6.875 0  L 75.28125 0  L 77.7728758169919 0  L 158.125 0  C 161.975 0  165 2.475  165 5.625  L 165 39.375  C 165 42.525  161.975 45  158.125 45  L 6.875 45  C 3.02500000000006 45  0 42.525  0 39.375  Z " fill-rule="evenodd" />
    </mask>
  </defs>
  <g transform="matrix(1 0 0 1 -821 -53 )">
    <path d="M 0 39.375  L 0 5.625  C 0 2.475  3.02500000000006 0  6.875 0  L 75.28125 0  L 77.7728758169919 0  L 158.125 0  C 161.975 0  165 2.475  165 5.625  L 165 39.375  C 165 42.525  161.975 45  158.125 45  L 6.875 45  C 3.02500000000006 45  0 42.525  0 39.375  Z " fill-rule="nonzero" fill="#1f4e70" stroke="none" transform="matrix(1 0 0 1 821 53 )" />
    <path d="M 0 39.375  L 0 5.625  C 0 2.475  3.02500000000006 0  6.875 0  L 75.28125 0  L 77.7728758169919 0  L 158.125 0  C 161.975 0  165 2.475  165 5.625  L 165 39.375  C 165 42.525  161.975 45  158.125 45  L 6.875 45  C 3.02500000000006 45  0 42.525  0 39.375  Z " stroke-width="2" stroke="#797979" fill="none" transform="matrix(1 0 0 1 821 53 )" mask="url(#clip2667)" />
  </g>
</svg>