<?xml version="1.0" encoding="utf-8"?>
<svg version="1.1" xmlns:xlink="http://www.w3.org/1999/xlink" width="120px" height="45px" xmlns="http://www.w3.org/2000/svg">
  <defs>
    <mask fill="white" id="clip2668">
      <path d="M 0 39.375  L 0 5.625  C 0 2.475  2.20000000000005 0  5 0  L 71.6388888888878 0  L 115 0  C 117.8 0  120 2.475  120 5.625  L 120 39.375  C 120 42.525  117.8 45  115 45  L 5 45  C 2.20000000000005 45  0 42.525  0 39.375  Z " fill-rule="evenodd" />
    </mask>
  </defs>
  <g transform="matrix(1 0 0 1 -1403 -53 )">
    <path d="M 0 39.375  L 0 5.625  C 0 2.475  2.20000000000005 0  5 0  L 71.6388888888878 0  L 115 0  C 117.8 0  120 2.475  120 5.625  L 120 39.375  C 120 42.525  117.8 45  115 45  L 5 45  C 2.20000000000005 45  0 42.525  0 39.375  Z " fill-rule="nonzero" fill="#3999dc" stroke="none" transform="matrix(1 0 0 1 1403 53 )" />
    <path d="M 0 39.375  L 0 5.625  C 0 2.475  2.20000000000005 0  5 0  L 71.6388888888878 0  L 115 0  C 117.8 0  120 2.475  120 5.625  L 120 39.375  C 120 42.525  117.8 45  115 45  L 5 45  C 2.20000000000005 45  0 42.525  0 39.375  Z " stroke-width="2" stroke="#797979" fill="none" transform="matrix(1 0 0 1 1403 53 )" mask="url(#clip2668)" />
  </g>
</svg>