<?xml version="1.0" encoding="utf-8"?>
<svg version="1.1" xmlns:xlink="http://www.w3.org/1999/xlink" width="30px" height="30px" xmlns="http://www.w3.org/2000/svg">
  <g transform="matrix(1 0 0 1 -756 -10 )">
    <path d="M 29.2875481386393 12.4005394470668  C 29.7625160462131 12.9265003371544  30 13.54012137559  30 14.2414025623736  C 30 14.956169925826  29.7625160462131 15.5630478759272  29.2875481386393 16.062036412677  L 16.7522464698331 29.2515171948753  C 16.2516046213094 29.7505057316251  15.6675224646983 30  15 30  C 14.3196405648267 30  13.7419768934531 29.7505057316251  13.2670089858793 29.2515171948753  L 0.731707317073171 16.062036412677  C 0.24390243902439 15.5765340525961  0 14.9696561024949  0 14.2414025623736  C 0 13.5266351989211  0.24390243902439 12.9130141604855  0.731707317073171 12.4005394470668  L 2.15661103979461 10.8833445718139  C 2.65725288831836 10.3843560350641  3.2413350449294 10.1348617666891  3.90885750962773 10.1348617666891  C 4.58921694480103 10.1348617666891  5.16688061617458 10.3843560350641  5.6418485237484 10.8833445718139  L 11.3029525032092 16.8307484828051  L 11.3029525032092 2.58934592043156  C 11.3029525032092 1.88806473364801  11.5468549422336 1.28118678354686  12.0346598202824 0.76871207012812  C 12.5224646983312 0.256237356709369  13.1001283697048 0  13.7676508344031 0  L 16.2323491655969 0  C 16.8998716302953 0  17.4775353016688 0.256237356709369  17.9653401797176 0.76871207012812  C 18.4531450577664 1.28118678354686  18.6970474967908 1.88806473364801  18.6970474967908 2.58934592043156  L 18.6970474967908 16.8307484828051  L 24.3581514762516 10.8833445718139  C 24.8331193838254 10.3843560350641  25.410783055199 10.1348617666891  26.0911424903723 10.1348617666891  C 26.7586649550706 10.1348617666891  27.3427471116816 10.3843560350641  27.8433889602054 10.8833445718139  L 29.2875481386393 12.4005394470668  Z " fill-rule="nonzero" fill="#f9f6f0" stroke="none" transform="matrix(1 0 0 1 756 10 )" />
  </g>
</svg>